<?xml version="1.0" encoding="utf-8"?>
<!-- Generator: Adobe Illustrator 19.2.1, SVG Export Plug-In . SVG Version: 6.00 Build 0)  -->
<svg version="1.1" id="Layer_1" xmlns="http://www.w3.org/2000/svg" xmlns:xlink="http://www.w3.org/1999/xlink" x="0px" y="0px"
	 viewBox="0 0 162 162" style="enable-background:new 0 0 162 162;" xml:space="preserve">

<path class="bio-icon-inner" d="M120,63.3L85.3,48.4c-3-1.3-6.5-1.3-9.6,0L41.1,63.3c-2,0.9-3.3,2.7-3.3,4.9c0,2.2,1.2,4.1,3.3,4.9l4.1,1.8
	c0,0,0,0.1,0,0.1v19.4c-1.6,0.5-2.7,2-2.7,3.8c0,1,0.4,2,1,2.7c-0.7,0.7-1.2,1.6-1.3,2.7l-1,10.8c-0.1,0.7,0.2,1.5,0.7,2
	c0.5,0.6,1.2,0.9,1.9,0.9h5.2c0.7,0,1.4-0.3,1.9-0.9s0.7-1.3,0.7-2l-1-10.8c-0.1-1.1-0.6-2-1.3-2.7c0.6-0.7,1-1.6,1-2.7
	c0-1.8-1.1-3.3-2.7-3.8V76l7,3c0,0,0,0.1,0,0.1v9.8c0,4.1,2.8,7.8,7.9,10.6c4.8,2.6,11.2,4.1,18,4.1s13.1-1.4,18-4.1
	c5.1-2.8,7.9-6.5,7.9-10.6v-9.8c0-0.1,0-0.1,0-0.1l13.6-5.8c2-0.9,3.3-2.7,3.3-4.9C123.2,66,122,64.2,120,63.3L120,63.3z"/>
<g>
	<path class="bio-icon-circle" d="M81,15c36.4,0,66,29.6,66,66s-29.6,66-66,66s-66-29.6-66-66S44.6,15,81,15 M81,0C36.3,0,0,36.3,0,81
		s36.3,81,81,81s81-36.3,81-81S125.7,0,81,0L81,0z"/>
</g>
</svg>
