<?xml version="1.0" encoding="utf-8"?>
<!-- Generator: Adobe Illustrator 19.2.1, SVG Export Plug-In . SVG Version: 6.00 Build 0)  -->
<svg version="1.1" id="Layer_1" xmlns="http://www.w3.org/2000/svg" xmlns:xlink="http://www.w3.org/1999/xlink" x="0px" y="0px"
	 viewBox="0 0 162 162" style="enable-background:new 0 0 162 162;" xml:space="preserve">
<path class="bio-icon-inner" d="M104.8,112.3c-3.6-1.4-8.3-2.2-13.4-2.4V37.8v-3.4c0-1-0.8-1.9-1.9-1.9c-1,0-1.9,0.8-1.9,1.9v1.8l-18.4,2.3
	c-0.9,0.1-1.6,0.9-1.6,1.8v10.9L51.2,57c-0.7,0.3-1.2,1-1.2,1.7s0.5,1.5,1.2,1.7l29.4,10.3c0.2,0.1,0.4,0.1,0.6,0.1
	c0.4,0,0.7-0.1,1.1-0.3c0.5-0.3,0.8-0.9,0.8-1.5v-9.6l4.6,0.6v49.8c-5,0.2-9.7,1-13.4,2.4c-4.6,1.8-7.2,4.4-7.2,7.4
	c0,3,2.6,5.6,7.2,7.4c4.1,1.6,9.5,2.4,15.2,2.4c5.7,0,11.1-0.9,15.2-2.4c4.6-1.8,7.2-4.4,7.2-7.4C112,116.7,109.4,114.2,104.8,112.3
	z"/>
<g>
	<path class="bio-icon-circle" d="M81,15c36.4,0,66,29.6,66,66s-29.6,66-66,66s-66-29.6-66-66S44.6,15,81,15 M81,0C36.3,0,0,36.3,0,81
		s36.3,81,81,81s81-36.3,81-81S125.7,0,81,0L81,0z"/>
</g>
</svg>
