<?xml version="1.0" encoding="utf-8"?>
<!-- Generator: Adobe Illustrator 19.2.1, SVG Export Plug-In . SVG Version: 6.00 Build 0)  -->
<svg version="1.1" id="Layer_1" xmlns="http://www.w3.org/2000/svg" xmlns:xlink="http://www.w3.org/1999/xlink" x="0px" y="0px"
	 viewBox="0 0 250 250" style="enable-background:new 0 0 250 250;" xml:space="preserve">
<style type="text/css">
	.st0{fill:#5AD6FF;}
</style>
<path class="st0" d="M138.9,42C115,43.9,93.4,57.8,81.6,78.6c-2.1,3.7-2.2,3.8-3,3.3c-5.9-4.3-14.6-6.7-21.8-6.2
	c-9,0.7-18.2,5.3-23.6,11.9c-5.7,7-8.5,16.1-7.5,24.5c0.2,1.8,0.6,4,0.9,4.8c0.4,1.3,0.3,1.6-0.3,1.9c-2.4,1.4-7.3,5.4-9.8,7.9
	c-14.8,15.1-17.8,38.8-7.3,56.9c7.5,12.9,19.6,21.3,34.6,24.1c3.2,0.6,9.2,0.6,82.2,0.6c87.6,0,81,0.2,88.7-2.6
	c7.3-2.6,12.7-5.9,18.2-11.5c9.1-9,13.9-20.5,13.9-33c0-16.8-8.7-31.9-23.3-40.7c-1.5-0.9-3.4-1.9-4.3-2.3l-1.7-0.7v-4.5
	c0-22.3-10.6-43.3-28.7-56.9C177.8,48,165,43.2,150.7,42C145.6,41.5,144.4,41.5,138.9,42z M100.2,118.8c8.6,1.5,16.5,5.6,23.3,12.2
	c2.5,2.4,12.8,14.2,18.2,20.9c3.7,4.5,8.8,8.3,13.8,10.4c6.9,2.8,14.2,1.7,18.8-2.8c5.7-5.6,5.6-14.7-0.1-20.1
	c-6.9-6.4-17.5-5.8-26.3,1.4c-1.1,1-2.2,1.6-2.3,1.4c-0.2-0.2-2.6-3-5.5-6.4l-5.1-6.1l1-1.1c3.5-3.8,11.2-8,17-9.5
	c4.7-1.1,15.2-1.3,19.8-0.2c6.8,1.6,11.6,4,16,8.3c6.8,6.4,9.7,14,9.2,24.1c-0.3,7.5-2.9,13.3-8,18.8c-4.6,4.8-10.4,8-17.3,9.5
	c-3.7,0.8-12.9,0.9-16.7,0.1c-7.5-1.5-14.1-4.8-20.9-10.5c-1.6-1.4-13-14.4-20-22.9c-5.6-6.8-14.4-11.7-20.9-11.7
	c-6.4,0-12,3.4-14.5,8.7c-0.9,1.9-1,2.6-1,5.8c0,3.2,0.2,3.9,1.1,5.8c3.9,8.1,14.3,10.9,23.7,6.4c1.7-0.8,4.2-2.4,5.5-3.5
	c1.3-1.1,2.6-1.8,2.7-1.6c2.1,2.2,10.3,12.1,10.3,12.4c0,0.6-6.4,5.4-9.5,7.1c-13,7.1-31.4,5.8-42.4-2.9
	c-7.4-5.9-11.1-13.7-11.1-23.4c0-5.8,0.7-9.3,2.9-13.7c4.5-9,13.2-15.2,24.1-17.1C89.9,118.1,96.3,118.1,100.2,118.8z"/>
</svg>
