<?xml version="1.0" encoding="utf-8"?>
<!-- Generator: Adobe Illustrator 19.2.1, SVG Export Plug-In . SVG Version: 6.00 Build 0)  -->
<svg version="1.1" id="Layer_1" xmlns="http://www.w3.org/2000/svg" xmlns:xlink="http://www.w3.org/1999/xlink" x="0px" y="0px"
	 viewBox="0 0 162 162" style="enable-background:new 0 0 162 162;" xml:space="preserve">

<g>
	<path class="bio-icon-inner" d="M86.1,51.7c0.3,0,0.4,0,0.6,0h1.6c0.5,0,1-0.3,1.2-0.8s0.1-1.1-0.3-1.4c-3.4-3.1-7.6-4.7-12.5-4.7
		c-9.8,0-20,6.5-22.1,10.9c-2.4,5.2-5.5,8.3-5.6,8.4c-0.3,0.3-0.4,0.6-0.4,1c0,0.4,0.2,0.7,0.4,0.9l8.1,7c0.3,0.3,0.7,0.4,1.1,0.3
		c0.4-0.1,0.7-0.4,0.9-0.7c0.1-0.1,0.8-1.4,3.2-1.2c3.1,0.3,5.2,1.7,5.2,1.7c0.2,0.1,0.5,0.2,0.7,0.2c0.3,0,0.6-0.1,0.9-0.3l7.7-7.1
		c0.4-0.4,0.6-1,0.3-1.5L74,57.9C77.3,52.2,84,51.7,86.1,51.7z"/>
	<path class="bio-icon-inner" d="M50.7,81.4c0.2,0.2,0.5,0.3,0.8,0.3c0,0,0.1,0,0.1,0c0.3,0,0.7-0.2,0.9-0.5l4.5-5.5c0.4-0.6,0.4-1.3-0.1-1.8
		l-8.4-7.4c-0.3-0.2-0.6-0.3-0.9-0.3c-0.3,0-0.7,0.2-0.9,0.4l-4.9,5.5c-0.2,0.3-0.3,0.6-0.3,1c0,0.3,0.2,0.7,0.4,0.9L50.7,81.4z"/>
	<path class="bio-icon-inner" d="M119.9,104.5l-22-21.2l-9-8.8l18.5-17l0.9,0.9c0.3,0.3,0.6,0.4,0.9,0.4h0c0.4,0,0.7-0.2,0.9-0.4l6.8-8.1
		c0.2-0.3,0.3-0.6,0.3-1c0-0.3-0.2-0.7-0.5-0.9l-2.5-2c-0.5-0.4-1.1-0.4-1.6,0l-8,6.4c-0.3,0.2-0.5,0.6-0.5,0.9c0,0.4,0.1,0.7,0.4,1
		l1,0.9L87,72.8l-6.8-6.7c-0.5-0.5-1.3-0.5-1.7,0l-8.9,7.7c-0.3,0.2-0.4,0.6-0.4,0.9c0,0.4,0.1,0.7,0.3,1l6.7,7.1l-0.8,0.8l-3.3-3.3
		c-0.5-0.5-1.3-0.5-1.8-0.1l-28.1,24.2c-0.1,0.1-0.3,0.3-0.3,0.5c-1,2.2,0.4,5.6,3.3,8.6c2.2,2.2,4.9,3.6,7,3.6
		c0.7,0,1.4-0.1,1.9-0.5c0.1,0,0.2-0.1,0.3-0.2l26-26c0.5-0.5,0.5-1.3,0-1.8l-3.2-3.2l0.8-0.7l29.7,31.7c0.1,0.1,0.2,0.2,0.3,0.2
		c0.6,0.3,1.2,0.5,1.9,0.5c2.1,0,4.8-1.4,7-3.6c2.9-2.9,4.3-6.4,3.3-8.6C120.1,104.8,120,104.6,119.9,104.5z"/>
</g>
<g>
	<path class="bio-icon-circle" d="M81,15c36.4,0,66,29.6,66,66s-29.6,66-66,66s-66-29.6-66-66S44.6,15,81,15 M81,0C36.3,0,0,36.3,0,81
		s36.3,81,81,81s81-36.3,81-81S125.7,0,81,0L81,0z"/>
</g>
</svg>
