<?xml version="1.0" encoding="utf-8"?>
<!-- Generator: Adobe Illustrator 19.0.0, SVG Export Plug-In . SVG Version: 6.00 Build 0)  -->
<svg version="1.1" id="Layer_1" xmlns="http://www.w3.org/2000/svg" xmlns:xlink="http://www.w3.org/1999/xlink" x="0px" y="0px"
	 viewBox="0 0 64 64" style="enable-background:new 0 0 64 64;" xml:space="preserve">

<path id="XMLID_1_" fill="#51d4ff" d="M32,6.4c14.1,0,25.6,11.5,25.6,25.6S46.1,57.6,32,57.6S6.4,46.1,6.4,32S17.9,6.4,32,6.4 M32,0.4
	C14.6,0.4,0.4,14.6,0.4,32S14.6,63.6,32,63.6S63.6,49.4,63.6,32S49.4,0.4,32,0.4L32,0.4z"/>
<g id="XMLID_13_">
	<path id="XMLID_15_" fill="#ffffff" d="M29.5,37.9c-1.2,0-2.4-0.2-3.6-0.6c-1.2-0.4-2.2-1-3.1-1.8c-0.9-0.8-1.6-1.8-2.2-3
		c-0.5-1.2-0.8-2.5-0.8-4c0-1.8,0.3-3.4,1-4.7c0.7-1.3,1.6-2.5,2.7-3.4c1.1-0.9,2.5-1.6,4-2c1.5-0.5,3.1-0.7,4.7-0.7
		s3.2,0.2,4.7,0.7c1.5,0.4,2.8,1.1,4,2c1.1,0.9,2.1,2,2.7,3.3c0.7,1.3,1,2.9,1,4.7c0,1.8-0.4,3.5-1.1,5c-0.7,1.6-1.5,3-2.5,4.3
		l-6.5,9.1H23l6.7-8.7l0.2-0.2H29.5z M32.2,32.8c1.4,0,2.5-0.4,3.3-1.3c0.9-0.9,1.3-1.9,1.3-3.2c0-1.3-0.4-2.4-1.3-3.3
		c-0.9-0.9-2-1.3-3.3-1.3c-1.4,0-2.6,0.4-3.5,1.3c-0.9,0.9-1.3,2-1.3,3.3c0,1.3,0.4,2.3,1.3,3.2C29.6,32.4,30.8,32.8,32.2,32.8z"/>
</g>
</svg>
