<?xml version="1.0" encoding="utf-8"?>
<!-- Generator: Adobe Illustrator 19.2.1, SVG Export Plug-In . SVG Version: 6.00 Build 0)  -->
<svg version="1.1" id="Layer_1" xmlns="http://www.w3.org/2000/svg" xmlns:xlink="http://www.w3.org/1999/xlink" x="0px" y="0px"
	 viewBox="0 0 250 250" style="enable-background:new 0 0 250 250;" xml:space="preserve">
<style type="text/css">
	.st0{fill:#5AD6FF;}
</style>
<path class="st0" d="M125,7.2C58.3,7.2,4.2,61.3,4.2,128c0,53.4,34.6,98.7,82.6,114.6c6,1.1,8.2-2.6,8.2-5.8
	c0-2.9-0.1-12.4-0.2-22.5c-33.6,7.3-40.7-14.2-40.7-14.2c-5.5-13.9-13.4-17.7-13.4-17.7c-11-7.5,0.8-7.3,0.8-7.3
	c12.1,0.8,18.5,12.4,18.5,12.4c10.8,18.5,28.3,13.1,35.2,10c1.1-7.8,4.2-13.1,7.7-16.1c-26.8-3.1-55-13.4-55-59.7
	c0-13.2,4.7-24,12.4-32.4c-1.2-3.1-5.4-15.4,1.2-32c0,0,10.1-3.2,33.2,12.4c9.6-2.7,20-4,30.2-4.1c10.3,0,20.6,1.4,30.2,4.1
	c23-15.6,33.2-12.4,33.2-12.4c6.6,16.6,2.4,28.9,1.2,32c7.7,8.5,12.4,19.2,12.4,32.4c0,46.4-28.3,56.6-55.2,59.6
	c4.4,3.7,8.2,11.1,8.2,22.4c0,16.1-0.2,29.2-0.2,33.1c0,3.2,2.2,7,8.3,5.8c48-16,82.5-61.3,82.5-114.6C245.8,61.3,191.7,7.2,125,7.2
	z"/>
</svg>
