<?xml version="1.0" encoding="utf-8"?>
<!-- Generator: Adobe Illustrator 19.0.0, SVG Export Plug-In . SVG Version: 6.00 Build 0)  -->
<svg version="1.1" id="Layer_1" xmlns:sketch="http://www.bohemiancoding.com/sketch/ns"
	 xmlns="http://www.w3.org/2000/svg" xmlns:xlink="http://www.w3.org/1999/xlink" x="0px" y="0px" viewBox="-4 6 20 20"
	 style="enable-background:new -4 6 20 20;" xml:space="preserve">
<style type="text/css">
	.st0{fill:#95D6EE;}
</style>
<title>icon-bell</title>
<desc>Created with Sketch.</desc>
<g id="Credit-Summary" sketch:type="MSPage">
	<g id="header_x2B_nav" transform="translate(-167.000000, -410.000000)" sketch:type="MSArtboardGroup">
		<path id="icon-bell" sketch:type="MSShapeGroup" class="st0" d="M182.6,432.3c-2-0.5-2.3-1.3-2.3-1.9v-4.8c0-3.2-1.8-6.1-4.5-7.2
			c-0.3-1.4-1.5-2.3-2.9-2.3c-1.4,0-2.5,1-2.9,2.3c-2.7,1.2-4.5,4-4.5,7.2v4.8c0,0.6-0.2,1.4-2.3,1.9c-0.2,0.1-0.4,0.3-0.4,0.5
			c0,0.3,0.2,0.4,0.5,0.4h6.8c0.2,1.6,1.3,2.7,2.7,2.7s2.5-1.2,2.7-2.7h6.8c0.2,0,0.4-0.2,0.5-0.4
			C183,432.6,182.9,432.3,182.6,432.3L182.6,432.3z M173,435c-1,0-1.6-0.8-1.8-1.7h3.5C174.6,434.2,174,435,173,435L173,435z
			 M165.7,432.3c0.5-0.4,0.9-1,0.9-1.9v-4.8c0-2.9,1.6-5.4,4.1-6.4c0.2-0.1,0.3-0.2,0.3-0.4c0.1-1,1-1.8,2-1.8c1,0,1.8,0.7,2,1.8
			c0,0.2,0.1,0.3,0.3,0.4c2.5,1,4.1,3.5,4.1,6.4v4.8c0,0.9,0.4,1.5,0.9,1.9H165.7L165.7,432.3z"/>
	</g>
</g>
</svg>
