<?xml version="1.0" encoding="utf-8"?>
<!-- Generator: Adobe Illustrator 24.3.0, SVG Export Plug-In . SVG Version: 6.00 Build 0)  -->
<svg version="1.1" id="Layer_1" xmlns="http://www.w3.org/2000/svg" xmlns:xlink="http://www.w3.org/1999/xlink" x="0px" y="0px"
	 viewBox="0 0 64 64" style="enable-background:new 0 0 64 64;" xml:space="preserve">
<style type="text/css">
	.st0{fill:#FFFFFF;}
</style>
<path id="XMLID_9_" class="st0" d="M29.5,51.3v-4.6c-3.2-0.1-6.3-1-8.2-2.1l1.4-5.6c2,1.1,4.8,2.1,8,2.1c2.7,0,4.6-1.1,4.6-3
	c0-1.8-1.5-3-5.1-4.2c-5.1-1.7-8.6-4.1-8.6-8.8c0-4.2,3-7.5,8.1-8.5V12h4.7v4.2c3.2,0.1,5.4,0.8,7,1.6L40,23.3
	c-1.2-0.5-3.5-1.6-6.9-1.6C30,21.7,29,23,29,24.4c0,1.6,1.7,2.6,5.8,4.1c5.7,2,8,4.7,8,9s-3,7.9-8.5,8.9v4.9
	C34.3,51.3,29.5,51.3,29.5,51.3z"/>
</svg>
