<?xml version="1.0" encoding="utf-8"?>
<!-- Generator: Adobe Illustrator 19.2.1, SVG Export Plug-In . SVG Version: 6.00 Build 0)  -->
<svg version="1.1" id="Layer_1" xmlns="http://www.w3.org/2000/svg" xmlns:xlink="http://www.w3.org/1999/xlink" x="0px" y="0px"
	 viewBox="0 0 162 162" style="enable-background:new 0 0 162 162;" xml:space="preserve">
<style type="text/css">
	.bio-icon-inner{clip-path:url(#SVGID_2_);fill:#FFFFFF;}
</style>
<g>
	<defs>
		<circle id="SVGID_1_" cx="81" cy="81" r="81"/>
	</defs>
	<clipPath id="SVGID_2_">
		<use xlink:href="#SVGID_1_"  style="overflow:visible;"/>
	</clipPath>
	<path class="bio-icon-inner" d="M139,138c-1.1-2.4,0-1.9-2.4-2.4c-10.2-4.2-19.3-6-29.5-9.6c-0.6-0.6-3.6-2.4-3.6-7.2c0-1.9-0.6-3-3-3
		c-0.6,0-0.6,0-0.6-1.9c-0.6-4.7-0.6-7.2-0.6-7.8c0-0.6,0.6-1.1,1.1-1.9c3.6-4.7,4.2-10.8,4.7-13.8c0,0,0.6,0.6,1.1-1.1
		c0.6-2.4,1.1-3,1.9-5.5c0.6-1.9,1.1-6-1.1-6c-1.1,0.6-1.1,0-1.1-1.9V62.7c-0.6-4.6-3-7.6-5.5-8.8c-3-2.4-4.2-3-6-4.2
		c-1.1-1.1-1.1-2.4,0-4.2c0.6-0.6,1.9-1.1,2.4-1.9h-0.6c-0.6,0-8.5,1.1-11.4,1.9c-6,1.1-11.5,2.9-16.2,7.2c-3,2.4-6,6-6,10.2
		c0,2.4,0,9.6,0,13.2c0,1.1,0,1.9-1.1,1.1c-3-0.6-1.1,4.7-1.1,5.5c0.6,2.4,1.1,3.6,1.9,6c0.6,1.9,1.1,1.1,1.1,1.1
		c0.6,3.6,2.4,10.2,4.7,13.8c0.6,0.6,0.6,1.1,0.6,1.9c-0.6,2.4-0.6,5.5-0.6,7.8c0,0.6-0.6,1.1-1.1,1.1c-2.4,0-2.4,1.9-2.4,3
		c0,3.6-2.4,6.6-3.6,7.2c-4.7,3.6-22.9,9.1-28.9,10.8c-4.2,1.1-4.7,2.4-6,4.2l-3,6.6c22.9,0,99.8,0,116,0C139,146.3,139,138,139,138
		z"/>
</g>
<g>
	<path class="bio-icon-circle" d="M81,15c36.4,0,66,29.6,66,66s-29.6,66-66,66s-66-29.6-66-66S44.6,15,81,15 M81,0C36.3,0,0,36.3,0,81
		s36.3,81,81,81s81-36.3,81-81S125.7,0,81,0L81,0z"/>
</g>
</svg>
