<?xml version="1.0" encoding="utf-8"?>
<!-- Generator: Adobe Illustrator 19.2.1, SVG Export Plug-In . SVG Version: 6.00 Build 0)  -->
<svg version="1.1" id="Capa_1" xmlns="http://www.w3.org/2000/svg" xmlns:xlink="http://www.w3.org/1999/xlink" x="0px" y="0px"
	 viewBox="0 0 250 250" style="enable-background:new 0 0 250 250;" xml:space="preserve">
<style type="text/css">
	.st0{fill:#5AD6FF;}
</style>
<path id="LinkedIn" class="st0" d="M247.1,151.4v90.3h-52.4v-84.3c0-21.2-7.6-35.6-26.5-35.6c-14.5,0-23.1,9.7-26.9,19.2
	c-1.4,3.4-1.7,8.1-1.7,12.8v88H87.3c0,0,0.7-142.7,0-157.5h52.4v22.3c-0.1,0.2-0.2,0.3-0.3,0.5h0.3v-0.5c7-10.7,19.4-26,47.2-26
	C221.3,80.5,247.1,103,247.1,151.4z M32.5,8.3C14.6,8.3,2.9,20,2.9,35.5c0,15.1,11.4,27.2,28.9,27.2h0.3c18.3,0,29.6-12.1,29.6-27.2
	C61.4,20,50.4,8.3,32.5,8.3z M6,241.7h52.4V84.2H6V241.7z"/>
</svg>
