<?xml version="1.0" encoding="utf-8"?>
<!-- Generator: Adobe Illustrator 19.2.1, SVG Export Plug-In . SVG Version: 6.00 Build 0)  -->
<svg version="1.1" id="Layer_1" xmlns="http://www.w3.org/2000/svg" xmlns:xlink="http://www.w3.org/1999/xlink" x="0px" y="0px"
	 viewBox="0 0 162 162" style="enable-background:new 0 0 162 162;" xml:space="preserve">
<path class="bio-icon-inner" d="M81,118.2L62.3,77.5c-1.6-3-3.3-7-3.3-11.6c0-12.2,9.9-22.1,22-22.1s22,10,22,22.1c0,4.6-1.7,8.6-3.3,11.6v0.1
	L81,118.2L81,118.2z M81,54.9c-6.1,0-11,4.9-11,11.1C70,72.2,74.9,77,81,77S92,72.2,92,66C92,59.8,87.1,54.9,81,54.9z"/>
<g>
	<path class="bio-icon-circle" d="M81,15c36.4,0,66,29.6,66,66s-29.6,66-66,66s-66-29.6-66-66S44.6,15,81,15 M81,0C36.3,0,0,36.3,0,81
		s36.3,81,81,81s81-36.3,81-81S125.7,0,81,0L81,0z"/>
</g>
</svg>
