<?xml version="1.0" encoding="utf-8"?>
<!-- Generator: Adobe Illustrator 22.0.1, SVG Export Plug-In . SVG Version: 6.00 Build 0)  -->
<svg version="1.1" id="Layer_1" xmlns="http://www.w3.org/2000/svg" xmlns:xlink="http://www.w3.org/1999/xlink" x="0px" y="0px"
	 viewBox="0 0 162 162" enable-background="new 0 0 162 162" xml:space="preserve">
<g>
	<path fill="#FFFFFF" d="M133.9,138.8c-1.1-2.4,5.1-2,2.7-2.5c-10.2-4.2-19.3-6-29.5-9.7c-0.6-0.6-3.6-2.4-3.6-7.3c0-1.9-0.6-3-3-3
		c-0.6,0-0.6,0-0.6-1.9c-0.6-4.7-0.6-7.3-0.6-7.9c0-0.6,0.6-1.1,1.1-1.9c3.6-4.7,4.2-10.9,4.7-13.9c0,0,0.6,0.6,1.1-1.1
		c0.6-2.4,1.1-3,1.9-5.5c0.6-1.9,1.1-6-1.1-6c-1.1,0.6-1.1,0-1.1-1.9V62.8c-0.6-4.6-3-7.7-5.5-8.9c-3-2.4-4.2-3-6-4.2
		c-1.1-1.1-1.1-2.4,0-4.2c0.6-0.6,1.9-1.1,2.4-1.9h-0.6c-0.6,0-8.5,1.1-11.4,1.9c-6,1.1-11.5,2.9-16.2,7.3c-3,2.4-6,6-6,10.3
		c0,2.4,0,9.7,0,13.3c0,1.1,0,1.9-1.1,1.1c-3-0.6-1.1,4.7-1.1,5.5c0.6,2.4,1.1,3.6,1.9,6c0.6,1.9,1.1,1.1,1.1,1.1
		c0.6,3.6,2.4,10.3,4.7,13.9c0.6,0.6,0.6,1.1,0.6,1.9c-0.6,2.4-0.6,5.5-0.6,7.9c0,0.6-0.6,1.1-1.1,1.1c-2.4,0-2.4,1.9-2.4,3
		c0,3.6-2.4,6.7-3.6,7.3c-4.7,3.6-22.9,9.2-28.9,10.9c-4.2,1.1-1.2,2.1-2.5,3.9l16.3,10.8c22.9,0,54,0,70.2,0
		C116,150.9,133.9,138.8,133.9,138.8z"/>
</g>
<g>
	<path fill="#51D4FF" d="M81,15c36.4,0,66,29.6,66,66s-29.6,66-66,66s-66-29.6-66-66S44.6,15,81,15 M81,0C36.3,0,0,36.3,0,81
		s36.3,81,81,81s81-36.3,81-81S125.7,0,81,0L81,0z"/>
</g>
</svg>
