<?xml version="1.0" encoding="utf-8"?>
<!-- Generator: Adobe Illustrator 19.2.1, SVG Export Plug-In . SVG Version: 6.00 Build 0)  -->
<svg version="1.1" id="Layer_1" xmlns="http://www.w3.org/2000/svg" xmlns:xlink="http://www.w3.org/1999/xlink" x="0px" y="0px"
	 viewBox="0 0 250 250" style="enable-background:new 0 0 250 250;" xml:space="preserve">
<style type="text/css">
	.st0{fill:#5AD6FF;}
</style>
<path class="st0" d="M200,2l-23.8,6.5l22.3,82.9l23.8-6.1L200,2z M139.4,27.7l-18.8,15.7l55.3,66l18.8-15.7L139.4,27.7z M97.9,70.3
	L85.7,91.4l74.4,43l12.3-21.1L97.9,70.3z M76.5,114.4l-6.5,23.4l83.3,22.3l6.1-23.4L76.5,114.4z M66.9,153.2L65,177.8l85.6,7.3
	l2.3-24.6L66.9,153.2z M27.7,162v73.7V248H40h135.1h12.3v-12.3V162h-24.6v61.4H52.3V162H27.7z M64.6,186.6v24.6h85.9v-24.6H64.6z"/>
</svg>
