<?xml version="1.0" encoding="utf-8"?>
<!-- Generator: Adobe Illustrator 19.2.1, SVG Export Plug-In . SVG Version: 6.00 Build 0)  -->
<svg version="1.1" id="Layer_1" xmlns="http://www.w3.org/2000/svg" xmlns:xlink="http://www.w3.org/1999/xlink" x="0px" y="0px"
	 viewBox="0 0 162 162" style="enable-background:new 0 0 162 162;" xml:space="preserve">

<path class="bio-icon-inner" d="M90.6,49.9h24.3v10.2H90.6V49.9z M45.7,49.9H82v10.2H45.7V49.9z M76,66.8h38.9v10.2H76V66.8z M64.8,83.8h29V94
	h-29V83.8z M100.2,83.8h14.7V94h-14.7V83.8z M83.6,100.7h31.3v10.2H83.6L83.6,100.7L83.6,100.7z M45.7,66.8h22v10.2h-22V66.8z
	 M45.7,100.7h29.7v10.2H45.7V100.7z M45.7,83.8h13.1V94H45.7V83.8z"/>
<g>
	<path class="bio-icon-circle" d="M81,15c36.4,0,66,29.6,66,66s-29.6,66-66,66s-66-29.6-66-66S44.6,15,81,15 M81,0C36.3,0,0,36.3,0,81
		s36.3,81,81,81s81-36.3,81-81S125.7,0,81,0L81,0z"/>
</g>
</svg>
