<?xml version="1.0" encoding="utf-8"?>
<!-- Generator: Adobe Illustrator 24.3.0, SVG Export Plug-In . SVG Version: 6.00 Build 0)  -->
<svg version="1.1" id="Layer_1" xmlns="http://www.w3.org/2000/svg" xmlns:xlink="http://www.w3.org/1999/xlink" x="0px" y="0px"
	 viewBox="0 0 162 162" style="enable-background:new 0 0 162 162;" xml:space="preserve">
<style type="text/css">
	.st0{fill:#FFFFFF;}
</style>
<path class="st0" d="M109.2,54H51.8c-1.7,0-3.1,1.4-3.1,3.1v36.1c0,1.7,1.4,3.1,3.1,3.1h21.5v7h-8.4c-1.6,0-2.9,1.3-2.9,2.9
	s1.3,2.9,2.9,2.9h31.2c1.6,0,2.9-1.3,2.9-2.9s-1.3-2.9-2.9-2.9h-8.4v-7h21.5c1.7,0,3.1-1.4,3.1-3.1V57.1
	C112.3,55.4,110.9,54,109.2,54z"/>
<path d="M63.3,76.9l9.7,4.5c0.2,0.1,0.5,0.2,0.8,0.2c0.4,0,0.7-0.1,1-0.3c0.5-0.4,0.9-0.9,0.9-1.6l0,0c0-0.7-0.4-1.4-1.1-1.7
	l-6.1-2.8l6.1-2.8c0.7-0.3,1.1-1,1.1-1.7l0,0c0-0.6-0.3-1.2-0.9-1.6c-0.3-0.2-0.6-0.3-1-0.3c-0.3,0-0.6,0.1-0.8,0.2l-9.7,4.5
	c-0.7,0.3-1.1,1-1.1,1.7v0.1C62.2,75.9,62.6,76.5,63.3,76.9z"/>
<path d="M75.8,86.1c0.4,0.5,0.9,0.8,1.5,0.8l0,0c0.8,0,1.5-0.5,1.8-1.3l6.4-19.8c0.2-0.6,0.1-1.2-0.3-1.7s-0.9-0.8-1.5-0.8l0,0
	c-0.8,0-1.5,0.5-1.8,1.3l-6.4,19.8C75.3,84.9,75.4,85.6,75.8,86.1z"/>
<path d="M85.3,70.5c0,0.7,0.4,1.4,1.1,1.7l6.1,2.8l-6.1,2.8c-0.7,0.3-1.1,1-1.1,1.7l0,0c0,0.6,0.3,1.2,0.9,1.6
	c0.3,0.2,0.7,0.3,1,0.3s0.5-0.1,0.8-0.2l9.7-4.5c0.7-0.3,1.1-1,1.1-1.7v0c0-0.7-0.4-1.4-1.1-1.7L88,68.8c-0.2-0.1-0.5-0.2-0.8-0.2
	c-0.4,0-0.7,0.1-1,0.3C85.7,69.3,85.3,69.8,85.3,70.5L85.3,70.5L85.3,70.5z"/>
</svg>
