<?xml version="1.0" encoding="utf-8"?>
<!-- Generator: Adobe Illustrator 24.3.0, SVG Export Plug-In . SVG Version: 6.00 Build 0)  -->
<svg version="1.1" id="Layer_1" xmlns="http://www.w3.org/2000/svg" xmlns:xlink="http://www.w3.org/1999/xlink" x="0px" y="0px"
	 viewBox="0 0 162 162" style="enable-background:new 0 0 162 162;" xml:space="preserve">
<style type="text/css">
	.st0{fill:#FFFFFF;}
</style>
<path class="st0" d="M100.8,107c-3-1.2-6.9-1.8-11.1-2v-60v-2.8c0-0.8-0.7-1.6-1.6-1.6c-0.8,0-1.6,0.7-1.6,1.6v1.5l-15.3,1.9
	c-0.7,0.1-1.3,0.7-1.3,1.5v9.1L56.2,61c-0.6,0.2-1,0.8-1,1.4s0.4,1.2,1,1.4l24.5,8.6c0.2,0.1,0.3,0.1,0.5,0.1c0.3,0,0.6-0.1,0.9-0.2
	c0.4-0.2,0.7-0.7,0.7-1.2v-8l3.8,0.5v41.4c-4.2,0.2-8.1,0.8-11.1,2c-3.8,1.5-6,3.7-6,6.2c0,2.5,2.2,4.7,6,6.2c3.4,1.3,7.9,2,12.6,2
	c4.7,0,9.2-0.7,12.6-2c3.8-1.5,6-3.7,6-6.2C106.8,110.7,104.6,108.6,100.8,107z"/>
</svg>
