<?xml version="1.0" encoding="utf-8"?>
<!-- Generator: Adobe Illustrator 24.3.0, SVG Export Plug-In . SVG Version: 6.00 Build 0)  -->
<svg version="1.1" id="Layer_1" xmlns="http://www.w3.org/2000/svg" xmlns:xlink="http://www.w3.org/1999/xlink" x="0px" y="0px"
	 viewBox="0 0 162 162" style="enable-background:new 0 0 162 162;" xml:space="preserve">
<style type="text/css">
	.st0{fill:#FFFFFF;}
</style>
<path class="st0" d="M49.3,92.7c0.4,1.6,0.7,5,0.7,10.2c0,4.5,0.2,7.8,0.7,9.9s1.4,3.9,2.8,5.3c1.4,1.4,3.1,2.4,5.2,3.1
	c2,0.6,5,0.9,8.9,0.9h2.3v-10.3c-3.1,0-5.1-0.2-6-0.6s-1.6-0.9-2-1.7c-0.4-0.7-0.7-2-0.7-3.9c0-1.3-0.1-4.3-0.3-9.1
	c-0.2-3.1-0.5-5.6-1.1-7.4c-0.6-1.9-1.4-3.4-2.5-4.7c-1.1-1.3-2.4-2.4-4.1-3.4c1.9-1.2,3.3-2.4,4.2-3.6c0.9-1.1,1.7-2.6,2.3-4.3
	c0.6-1.8,1-4,1.1-6.9c0.3-5,0.4-8.4,0.4-10.2s0.2-3,0.6-3.7c0.4-0.7,1.1-1.3,2-1.6c0.9-0.4,2.9-0.5,6.1-0.5V40h-2.3
	c-3.7,0-6.5,0.3-8.2,0.8c-2.6,0.8-4.5,1.8-5.9,3.1c-1.3,1.3-2.3,3.1-2.8,5.3s-0.8,6-0.8,11.5c0,3.4-0.1,5.8-0.4,7.1
	c-0.3,1.8-0.8,3.3-1.6,4.5s-1.7,2.1-2.7,2.6s-2.6,0.8-4.7,1v10.3c2.6,0.1,4.6,0.7,5.8,1.7C47.7,88.8,48.7,90.4,49.3,92.7z"/>
<path class="st0" d="M102.6,121.2c2.6-0.8,4.6-1.8,5.9-3.1c1.3-1.3,2.3-3.1,2.7-5.3c0.5-2.2,0.8-6,0.8-11.6c0-3.4,0.1-5.7,0.4-7.1
	c0.3-1.8,0.8-3.3,1.6-4.5c0.8-1.2,1.7-2.1,2.7-2.6c1.1-0.5,2.6-0.8,4.7-0.9l0,0V75.9c-2.6-0.2-4.6-0.7-5.8-1.7
	c-1.3-1-2.2-2.6-2.8-4.9c-0.4-1.6-0.6-5-0.6-10.2c0-4.5-0.2-7.8-0.7-9.9s-1.4-3.9-2.8-5.3c-1.4-1.4-3.1-2.4-5.2-3s-5-0.9-8.9-0.9
	h-2.3v10.2c3.2,0,5.3,0.2,6.2,0.6c0.9,0.4,1.6,0.9,1.9,1.6s0.5,2.1,0.6,4.3c0.2,6.8,0.4,11.2,0.7,13.2c0.5,2.9,1.4,5.3,2.7,7.1
	c1,1.3,2.5,2.6,4.6,4c-1.6,0.9-2.9,2-4,3.3c-1.1,1.2-1.9,2.7-2.5,4.5s-1,4.2-1.2,7.1c-0.2,4.9-0.4,8.2-0.4,9.9c0,1.7-0.2,3-0.7,3.7
	s-1.1,1.3-2.1,1.7c-0.9,0.4-2.9,0.6-6,0.6V122h2.3C98.1,122,100.9,121.7,102.6,121.2z"/>
</svg>
