<?xml version="1.0" encoding="utf-8"?>
<!-- Generator: Adobe Illustrator 24.3.0, SVG Export Plug-In . SVG Version: 6.00 Build 0)  -->
<svg version="1.1" id="Layer_1" xmlns="http://www.w3.org/2000/svg" xmlns:xlink="http://www.w3.org/1999/xlink" x="0px" y="0px"
	 viewBox="0 0 162 162" style="enable-background:new 0 0 162 162;" xml:space="preserve">
<style type="text/css">
	.st0{fill:#FFFFFF;}
</style>
<path class="st0" d="M125.4,120.8c-0.8-1.8-2.3-10.4-4.7-10.8c-7.6-3.1-14.4-4.5-22-7.2c-0.4-0.4-2.7-1.8-2.7-5.4
	c0-1.4-0.4-2.2-2.2-2.2c-0.4,0-0.4,0-0.4-1.4c-0.4-3.5-0.4-5.4-0.4-5.9c0-0.4,0.4-0.8,0.8-1.4c2.7-3.5,3.1-8.1,3.5-10.3
	c0,0,0.4,0.4,0.8-0.8c0.4-1.8,0.8-2.2,1.4-4.1c0.4-1.4,0.8-4.5-0.8-4.5c-0.8,0.4-0.8,0-0.8-1.4v-10c-0.4-3.4-2.2-5.7-4.1-6.6
	c-2.2-1.8-3.1-2.2-4.5-3.1c-0.8-0.8-0.8-1.8,0-3.1c0.4-0.4,1.4-0.8,1.8-1.4h-0.4c-0.4,0-6.3,0.8-8.5,1.4c-4.5,0.8-8.6,2.2-12.1,5.4
	c-2.2,1.8-4.5,4.5-4.5,7.7c0,1.8,0,7.2,0,9.9c0,0.8,0,1.4-0.8,0.8c-2.2-0.4-0.8,3.5-0.8,4.1c0.4,1.8,0.8,2.7,1.4,4.5
	c0.4,1.4,0.8,0.8,0.8,0.8c0.4,2.7,1.8,7.7,3.5,10.3c0.4,0.4,0.4,0.8,0.4,1.4c-0.4,1.8-0.4,4.1-0.4,5.9c0,0.4-0.4,0.8-0.8,0.8
	c-1.8,0-1.8,1.4-1.8,2.2c0,2.7-1.8,5-2.7,5.4c-3.5,2.7-17,6.8-21.5,8.1c-3.1,0.8-5.4,9.8-6.3,11.1l16.6-0.1c17,0,40.2,0,52.2,0
	C105.4,120.9,125.4,120.8,125.4,120.8z"/>
</svg>
