<?xml version="1.0" encoding="utf-8"?>
<!-- Generator: Adobe Illustrator 24.3.0, SVG Export Plug-In . SVG Version: 6.00 Build 0)  -->
<svg version="1.1" id="Layer_1" xmlns="http://www.w3.org/2000/svg" xmlns:xlink="http://www.w3.org/1999/xlink" x="0px" y="0px"
	 viewBox="0 0 162 162" style="enable-background:new 0 0 162 162;" xml:space="preserve">
<style type="text/css">
	.st0{fill:#FFFFFF;}
</style>
<path class="st0" d="M90.6,49.9h24.3v10.2H90.6V49.9z M45.7,49.9H82v10.2H45.7V49.9z M76,66.8h38.9V77H76V66.8z M64.8,83.8h29V94
	h-29V83.8z M100.2,83.8h14.7V94h-14.7V83.8z M83.6,100.7h31.3v10.2H83.6V100.7L83.6,100.7z M45.7,66.8h22V77h-22
	C45.7,77,45.7,66.8,45.7,66.8z M45.7,100.7h29.7v10.2H45.7V100.7z M45.7,83.8h13.1V94H45.7V83.8z"/>
</svg>
