<?xml version="1.0" encoding="utf-8"?>
<!-- Generator: Adobe Illustrator 19.0.0, SVG Export Plug-In . SVG Version: 6.00 Build 0)  -->
<svg version="1.1" id="Layer_1" xmlns="http://www.w3.org/2000/svg" xmlns:xlink="http://www.w3.org/1999/xlink" x="0px" y="0px"
	 viewBox="0 0 64 64" style="enable-background:new 0 0 64 64;" xml:space="preserve">
<path id="XMLID_1_" fill="#51d4ff" d="M32,6.4c14.1,0,25.6,11.5,25.6,25.6S46.1,57.6,32,57.6S6.4,46.1,6.4,32S17.9,6.4,32,6.4 M32,0.4
	C14.6,0.4,0.4,14.6,0.4,32S14.6,63.6,32,63.6S63.6,49.4,63.6,32S49.4,0.4,32,0.4L32,0.4z"/>
<path id="XMLID_5_" fill="#ffffff" d="M14.2,21.1c0,0,39,9.7,6.5,26.2c0,0,30.5-10,26.5-19S14.2,21.1,14.2,21.1z"/>
</svg>
