<?xml version="1.0" encoding="utf-8"?>
<!-- Generator: Adobe Illustrator 19.0.0, SVG Export Plug-In . SVG Version: 6.00 Build 0)  -->
<svg version="1.1" id="Layer_1" xmlns="http://www.w3.org/2000/svg" xmlns:xlink="http://www.w3.org/1999/xlink" x="0px" y="0px"
	 viewBox="0 0 64 64" style="enable-background:new 0 0 64 64;" xml:space="preserve">

<path id="XMLID_1_" fill="#51d4ff" d="M32,6.4c14.1,0,25.6,11.5,25.6,25.6S46.1,57.6,32,57.6S6.4,46.1,6.4,32S17.9,6.4,32,6.4 M32,0.4
	C14.6,0.4,0.4,14.6,0.4,32S14.6,63.6,32,63.6S63.6,49.4,63.6,32S49.4,0.4,32,0.4L32,0.4z"/>
<g id="XMLID_10_">
	<g id="XMLID_9_">
		<path id="XMLID_2_" fill="#ffffff" d="M39.2,40.5l-19-20.9c0,0-5.7,5.2-2.5,8.7s15.8,17.4,15.8,17.4L39.2,40.5z"/>
		<path id="XMLID_3_" fill="#ffffff" d="M39.2,40.6l-19-20.9c0,0,5.7-5.2,8.9-1.7s15.8,17.4,15.8,17.4L39.2,40.6z"/>
	</g>
	<g id="XMLID_7_">
		<path id="XMLID_6_" fill="#ffffff" d="M38.4,41.2l5.2,5.7c0,0,0.6,0.6,1.3,0l-5.8-6.4L38.4,41.2z"/>
		<path id="XMLID_4_" fill="#ffffff" d="M39.9,39.9l5.2,5.7c0,0,0.6,0.6-0.2,1.3l-5.8-6.4L39.9,39.9z"/>
	</g>
</g>
</svg>
